<svg t="1689415619224" class="icon" viewBox="0 0 1024 1024" version="1.1" xmlns="http://www.w3.org/2000/svg" p-id="7793" width="200" height="200"><path d="M759.442286 448c80.566857 23.442286 191.414857 102.838857 191.414857 362.861714C950.857143 928.585143 863.414857 1024 756.004571 1024H267.995429C160.548571 1024 73.142857 928.585143 73.142857 810.861714c0-259.986286 110.848-339.419429 191.414857-362.861714A289.426286 289.426286 0 0 1 219.428571 292.571429c0-161.133714 131.437714-292.571429 292.571429-292.571429s292.571429 131.437714 292.571429 292.571429a289.316571 289.316571 0 0 1-45.129143 155.428571zM512 73.142857C390.838857 73.142857 292.571429 171.446857 292.571429 292.571429s98.304 219.428571 219.428571 219.428571 219.428571-98.304 219.428571-219.428571-98.304-219.428571-219.428571-219.428572z m244.004571 877.714286C822.857143 950.857143 877.714286 888.576 877.714286 810.861714c0-180.004571-60.562286-292.571429-173.714286-298.276571C652.580571 557.714286 585.728 585.142857 512 585.142857s-140.580571-27.428571-192-72.557714C206.848 518.290286 146.285714 630.857143 146.285714 810.861714 146.285714 888.576 201.142857 950.857143 267.995429 950.857143h488.009142z" fill="" p-id="7794"></path></svg>