<svg t="1689323183159" class="icon" viewBox="0 0 1024 1024" version="1.1" xmlns="http://www.w3.org/2000/svg" p-id="22639" width="200" height="200"><path d="M358.4 0a102.4 102.4 0 0 1 102.4 102.4v819.2a102.4 102.4 0 0 1-102.4 102.4H102.4a102.4 102.4 0 0 1-102.4-102.4V102.4a102.4 102.4 0 0 1 102.4-102.4h256z m0 76.8H102.4a25.6 25.6 0 0 0-25.1904 20.992L76.8 102.4v819.2a25.6 25.6 0 0 0 20.992 25.1904L102.4 947.2h256a25.6 25.6 0 0 0 25.1904-20.992L384 921.6V102.4a25.6 25.6 0 0 0-20.992-25.1904L358.4 76.8z m268.288 547.84a38.4 38.4 0 0 1 50.1248-1.8432l4.1472 3.8912a38.4 38.4 0 0 1 1.8432 50.1248L630.272 742.4h333.7216l4.6592 0.3584c16.7936 2.56 29.696 18.5856 29.696 38.0416 0 21.1968-15.36 38.4-34.3552 38.4h-333.6704l52.4288 65.6384 3.2256 4.6592a38.4 38.4 0 0 1-63.232 43.3152l-102.4-128-3.328-4.9152a38.4 38.4 0 0 1 3.328-43.0592l102.4-128zM921.6 0a102.4 102.4 0 0 1 102.4 102.4v256a102.4 102.4 0 0 1-102.4 102.4h-256a102.4 102.4 0 0 1-102.4-102.4V102.4a102.4 102.4 0 0 1 102.4-102.4h256z m0 76.8h-256a25.6 25.6 0 0 0-25.1904 20.992L640 102.4v256a25.6 25.6 0 0 0 20.992 25.1904L665.6 384h256a25.6 25.6 0 0 0 25.1904-20.992L947.2 358.4V102.4a25.6 25.6 0 0 0-20.992-25.1904L921.6 76.8z" p-id="22640"></path></svg>